<?xml version="1.0" encoding="UTF-8" standalone="no"?>
<svg
   width="16"
   height="16"
   version="1.1"
   id="svg1"
   sodipodi:docname="checkbox_true.svg"
   inkscape:export-filename="checkbox_true.png"
   inkscape:export-xdpi="768"
   inkscape:export-ydpi="768"
   inkscape:version="1.3.2 (091e20ef0f, 2023-11-25)"
   xmlns:inkscape="http://www.inkscape.org/namespaces/inkscape"
   xmlns:sodipodi="http://sodipodi.sourceforge.net/DTD/sodipodi-0.dtd"
   xmlns="http://www.w3.org/2000/svg"
   xmlns:svg="http://www.w3.org/2000/svg">
  <defs
     id="defs1" />
  <sodipodi:namedview
     id="namedview1"
     pagecolor="#ffffff"
     bordercolor="#000000"
     borderopacity="0.25"
     inkscape:showpageshadow="2"
     inkscape:pageopacity="0.0"
     inkscape:pagecheckerboard="0"
     inkscape:deskcolor="#d1d1d1"
     inkscape:zoom="39.125"
     inkscape:cx="8"
     inkscape:cy="8"
     inkscape:window-width="1600"
     inkscape:window-height="832"
     inkscape:window-x="0"
     inkscape:window-y="32"
     inkscape:window-maximized="1"
     inkscape:current-layer="svg1" />
  <path
     style="fill:#dfdfdf;stroke-width:0.875"
     d="M 3.3327637,1 C 2.0377636,1 1,2.0377636 1,3.3327637 V 12.667236 C 1,13.962236 2.0377636,15 3.3327637,15 H 12.667236 C 13.962236,15 15,13.962236 15,12.667236 V 6.0996094 l -1.75,1.75 V 12.200683 C 13.25,12.778184 12.778183,13.25 12.200683,13.25 H 3.7993165 C 3.2218164,13.25 2.75,12.778184 2.75,12.200683 V 3.7993165 C 2.75,3.2218164 3.2218164,2.75 3.7993165,2.75 h 8.4013665 c 0.330056,0 0.622523,0.1566064 0.815186,0.3964844 C 13.327173,2.8914266 13.719205,2.7500614 14.125,2.75 c 0.297908,4.51e-5 0.587693,0.077311 0.844238,0.21875 C 14.795574,1.849274 13.837879,1 12.667236,1 Z M 14.125,3.625 A 0.875,0.875 0 0 0 13.506348,3.8813477 L 8.0957031,9.2919922 6.0756835,6.6003418 A 0.875,0.875 0 0 0 4.8503418,6.4243164 0.875,0.875 0 0 0 4.6743164,7.6496582 l 2.625,3.4999998 a 0.8750875,0.8750875 0 0 0 1.3193359,0.09399 L 14.743652,5.1186523 a 0.875,0.875 0 0 0 0,-1.2373046 A 0.875,0.875 0 0 0 14.125,3.625 Z"
     id="path1" />
</svg>
