<?xml version="1.0" encoding="UTF-8" standalone="no"?>
<svg
   width="16"
   height="16"
   version="1.1"
   id="svg1"
   sodipodi:docname="checkbox_false.svg"
   inkscape:version="1.3.2 (091e20ef0f, 2023-11-25)"
   inkscape:export-filename="checkbox_false.png"
   inkscape:export-xdpi="768"
   inkscape:export-ydpi="768"
   xmlns:inkscape="http://www.inkscape.org/namespaces/inkscape"
   xmlns:sodipodi="http://sodipodi.sourceforge.net/DTD/sodipodi-0.dtd"
   xmlns="http://www.w3.org/2000/svg"
   xmlns:svg="http://www.w3.org/2000/svg">
  <defs
     id="defs1" />
  <sodipodi:namedview
     id="namedview1"
     pagecolor="#ffffff"
     bordercolor="#000000"
     borderopacity="0.25"
     inkscape:showpageshadow="2"
     inkscape:pageopacity="0.0"
     inkscape:pagecheckerboard="0"
     inkscape:deskcolor="#d1d1d1"
     inkscape:zoom="39.125"
     inkscape:cx="8"
     inkscape:cy="8"
     inkscape:window-width="1600"
     inkscape:window-height="832"
     inkscape:window-x="0"
     inkscape:window-y="32"
     inkscape:window-maximized="1"
     inkscape:current-layer="svg1" />
  <g
     id="g1"
     transform="matrix(0.875,0,0,0.875,1,1)">
    <path
       style="fill:#dfdfdf"
       d="M 2.6660156,0 C 1.1860156,0 0,1.1860156 0,2.6660156 V 13.333984 C 0,14.813984 1.1860156,16 2.6660156,16 H 13.333984 C 14.813984,16 16,14.813984 16,13.333984 V 2.6660156 C 16,1.1860156 14.813984,0 13.333984,0 Z M 3.1992188,2 H 12.800781 C 13.460781,2 14,2.5392187 14,3.1992188 V 12.800781 C 14,13.460782 13.460781,14 12.800781,14 H 3.1992188 C 2.5392187,14 2,13.460782 2,12.800781 V 3.1992188 C 2,2.5392187 2.5392187,2 3.1992188,2 Z"
       id="path1" />
  </g>
</svg>
